<svg width="14" height="16" viewBox="0 0 14 16" xmlns="http://www.w3.org/2000/svg"><title>Imported Layers</title><path d="M.455 5.817l-.01.015 6 4 .01-.015c.16.107.34.183.545.183.205 0 .385-.076.544-.183l.01.016 6-4-.01-.016c.268-.18.456-.47.456-.817 0-.346-.188-.637-.456-.816l.01-.015-6-4-.01.014C7.384.078 7.204 0 7 0c-.206 0-.386.078-.545.184L6.445.17l-6 4 .01.014C.187 4.364 0 4.654 0 5c0 .347.187.638.455.817zM7 2.202L11.197 5 7 7.8 2.803 5 7 2.202zM13 10c-.206 0-.386.078-.545.184l-.01-.015L7 13.8l-5.446-3.63-.01.014C1.384 10.078 1.204 10 1 10c-.553 0-1 .448-1 1 0 .347.187.638.455.817l-.01.016 6 4 .01-.016c.16.106.34.184.545.184.205 0 .385-.077.544-.183l.01.016 6-4-.01-.016c.268-.18.456-.47.456-.817 0-.552-.448-1-1-1zm0-3c-.206 0-.386.078-.545.184l-.01-.015L7 10.8 1.554 7.17l-.01.014C1.384 7.078 1.204 7 1 7 .447 7 0 7.45 0 8c0 .347.187.638.455.817l-.01.016 6 4 .01-.016c.16.107.34.184.545.184.205 0 .385-.076.544-.183l.01.015 6-4-.01-.015c.268-.18.456-.47.456-.816 0-.552-.448-1-1-1z" fill="#536DFE" fill-rule="evenodd"/></svg>